<?xml version="1.0" encoding="UTF-8" standalone="no"?>
<!DOCTYPE svg PUBLIC "-//W3C//DTD SVG 1.1//EN"
 "http://www.w3.org/Graphics/SVG/1.1/DTD/svg11.dtd">
<!-- Generated by graphviz version 2.26.3 (20100126.1600)
 -->
<!-- Title: g Pages: 1 -->
<svg width="801pt" height="398pt"
 viewBox="0.00 0.00 801.00 398.00" xmlns="http://www.w3.org/2000/svg" xmlns:xlink="http://www.w3.org/1999/xlink">
<g id="graph1" class="graph" transform="scale(1 1) rotate(0) translate(4 394)">
<title>g</title>
<polygon fill="white" stroke="white" points="-4,5 -4,-394 798,-394 798,5 -4,5"/>
<!-- 1 -->
<g id="node1" class="node"><title>1</title>
<ellipse fill="none" stroke="#3cb9e5" cx="58" cy="-111" rx="57.9828" ry="18.3848"/>
<text text-anchor="middle" x="58" y="-107.4" font-family="Times Roman,serif" font-size="14.00">Każde ZP</text>
</g>
<!-- 2 -->
<g id="node2" class="node"><title>2</title>
<ellipse fill="none" stroke="#3cb9e5" cx="188" cy="-111" rx="53.9477" ry="18.3848"/>
<text text-anchor="middle" x="188" y="-107.4" font-family="Times Roman,serif" font-size="14.00">zdanie R</text>
</g>
<!-- 3 -->
<g id="node3" class="node"><title>3</title>
<ellipse fill="none" stroke="#3cb9e5" cx="137" cy="-203" rx="94.7523" ry="18.3848"/>
<text text-anchor="middle" x="137" y="-199.4" font-family="Times Roman,serif" font-size="14.00">Każde_zdanie FR</text>
</g>
<!-- 3&#45;&gt;1 -->
<g id="edge1" class="edge"><title>3&#45;&gt;1</title>
<path fill="none" stroke="black" d="M121.013,-184.382C109.296,-170.738 93.24,-152.039 80.2678,-136.932"/>
<polygon fill="black" stroke="black" points="82.5955,-134.27 73.4254,-128.964 77.2848,-138.831 82.5955,-134.27"/>
</g>
<!-- 3&#45;&gt;2 -->
<g id="edge2" class="edge"><title>3&#45;&gt;2</title>
<path fill="none" stroke="black" d="M147.321,-184.382C154.696,-171.077 164.736,-152.967 172.996,-138.067"/>
<polygon fill="black" stroke="black" points="176.082,-139.719 177.869,-129.276 169.959,-136.325 176.082,-139.719"/>
<text text-anchor="middle" x="174.5" y="-153.4" font-family="Times Roman,serif" font-size="14.00">#</text>
</g>
<!-- 4 -->
<g id="node4" class="node"><title>4</title>
<ellipse fill="none" stroke="#3cb9e5" cx="287" cy="-203" rx="36.7696" ry="18.3848"/>
<text text-anchor="middle" x="287" y="-199.4" font-family="Times Roman,serif" font-size="14.00">ma C</text>
</g>
<!-- 5 -->
<g id="node5" class="node"><title>5</title>
<ellipse fill="none" stroke="#3cb9e5" cx="367" cy="-111" rx="56.0679" ry="18.3848"/>
<text text-anchor="middle" x="367" y="-107.4" font-family="Times Roman,serif" font-size="14.00">swoje ZP</text>
</g>
<!-- 6 -->
<g id="node6" class="node"><title>6</title>
<ellipse fill="none" stroke="#3cb9e5" cx="499" cy="-111" rx="58.1882" ry="18.3848"/>
<text text-anchor="middle" x="499" y="-107.4" font-family="Times Roman,serif" font-size="14.00">drzewo R</text>
</g>
<!-- 7 -->
<g id="node7" class="node"><title>7</title>
<ellipse fill="none" stroke="#3cb9e5" cx="657" cy="-19" rx="75.1594" ry="18.3848"/>
<text text-anchor="middle" x="657" y="-15.4" font-family="Times Roman,serif" font-size="14.00">składniowe P</text>
</g>
<!-- 8 -->
<g id="node8" class="node"><title>8</title>
<ellipse fill="none" stroke="#3cb9e5" cx="657" cy="-111" rx="82.0244" ry="18.3848"/>
<text text-anchor="middle" x="657" y="-107.4" font-family="Times Roman,serif" font-size="14.00">składniowe FP</text>
</g>
<!-- 8&#45;&gt;7 -->
<g id="edge3" class="edge"><title>8&#45;&gt;7</title>
<path fill="none" stroke="black" d="M657,-92.3824C657,-79.5383 657,-62.2161 657,-47.6269"/>
<polygon fill="black" stroke="black" points="660.5,-47.5898 657,-37.5899 653.5,-47.5899 660.5,-47.5898"/>
<text text-anchor="middle" x="663.5" y="-61.4" font-family="Times Roman,serif" font-size="14.00">#</text>
</g>
<!-- 9 -->
<g id="node9" class="node"><title>9</title>
<ellipse fill="none" stroke="#3cb9e5" cx="499" cy="-203" rx="157.184" ry="18.3848"/>
<text text-anchor="middle" x="499" y="-199.4" font-family="Times Roman,serif" font-size="14.00">swoje_drzewo_składniowe FR</text>
</g>
<!-- 9&#45;&gt;5 -->
<g id="edge4" class="edge"><title>9&#45;&gt;5</title>
<path fill="none" stroke="black" d="M472.605,-184.604C451.524,-169.91 421.887,-149.255 399.374,-133.564"/>
<polygon fill="black" stroke="black" points="401.332,-130.662 391.127,-127.816 397.33,-136.405 401.332,-130.662"/>
</g>
<!-- 9&#45;&gt;6 -->
<g id="edge5" class="edge"><title>9&#45;&gt;6</title>
<path fill="none" stroke="black" d="M499,-184.382C499,-171.538 499,-154.216 499,-139.627"/>
<polygon fill="black" stroke="black" points="502.5,-139.59 499,-129.59 495.5,-139.59 502.5,-139.59"/>
<text text-anchor="middle" x="505.5" y="-153.4" font-family="Times Roman,serif" font-size="14.00">#</text>
</g>
<!-- 9&#45;&gt;8 -->
<g id="edge6" class="edge"><title>9&#45;&gt;8</title>
<path fill="none" stroke="black" d="M530.216,-184.824C555.506,-170.098 591.262,-149.278 618.358,-133.501"/>
<polygon fill="black" stroke="black" points="620.307,-136.416 627.187,-128.359 616.784,-130.367 620.307,-136.416"/>
</g>
<!-- 10 -->
<g id="node10" class="node"><title>10</title>
<ellipse fill="none" stroke="#3cb9e5" cx="287" cy="-295" rx="249.816" ry="18.3848"/>
<text text-anchor="middle" x="287" y="-291.4" font-family="Times Roman,serif" font-size="14.00">Każde_zdanie_ma_swoje_drzewo_składniowe FC</text>
</g>
<!-- 10&#45;&gt;3 -->
<g id="edge7" class="edge"><title>10&#45;&gt;3</title>
<path fill="none" stroke="black" d="M257.006,-276.604C233.297,-262.062 200.068,-241.682 174.585,-226.052"/>
<polygon fill="black" stroke="black" points="176.277,-222.984 165.923,-220.739 172.617,-228.951 176.277,-222.984"/>
<text text-anchor="middle" x="243" y="-245.4" font-family="Times Roman,serif" font-size="14.00">dop1</text>
</g>
<!-- 10&#45;&gt;4 -->
<g id="edge8" class="edge"><title>10&#45;&gt;4</title>
<path fill="none" stroke="black" d="M287,-276.382C287,-263.538 287,-246.216 287,-231.627"/>
<polygon fill="black" stroke="black" points="290.5,-231.59 287,-221.59 283.5,-231.59 290.5,-231.59"/>
<text text-anchor="middle" x="293.5" y="-245.4" font-family="Times Roman,serif" font-size="14.00">#</text>
</g>
<!-- 10&#45;&gt;9 -->
<g id="edge9" class="edge"><title>10&#45;&gt;9</title>
<path fill="none" stroke="black" d="M329.138,-276.714C363.39,-261.85 411.825,-240.831 448.215,-225.039"/>
<polygon fill="black" stroke="black" points="449.884,-228.13 457.664,-220.938 447.097,-221.709 449.884,-228.13"/>
<text text-anchor="middle" x="440" y="-245.4" font-family="Times Roman,serif" font-size="14.00">podmiot</text>
</g>
<!-- 11 -->
<g id="node11" class="node"><title>11</title>
<ellipse fill="none" stroke="#3cb9e5" cx="641" cy="-295" rx="85.7684" ry="18.3848"/>
<text text-anchor="middle" x="641" y="-291.4" font-family="Times Roman,serif" font-size="14.00">. koniec_zdania</text>
</g>
<!-- 12 -->
<g id="node12" class="node"><title>12</title>
<ellipse fill="none" stroke="#3cb9e5" cx="546" cy="-371" rx="246.987" ry="18.3848"/>
<text text-anchor="middle" x="546" y="-367.4" font-family="Times Roman,serif" font-size="14.00">Każde_zdanie_ma_swoje_drzewo_składniowe. Z</text>
</g>
<!-- 12&#45;&gt;10 -->
<g id="edge10" class="edge"><title>12&#45;&gt;10</title>
<path fill="none" stroke="black" d="M484.621,-352.989C446.617,-341.837 397.672,-327.475 358,-315.834"/>
<polygon fill="black" stroke="black" points="358.968,-312.471 348.387,-313.013 356.997,-319.187 358.968,-312.471"/>
</g>
<!-- 12&#45;&gt;11 -->
<g id="edge11" class="edge"><title>12&#45;&gt;11</title>
<path fill="none" stroke="black" d="M569.483,-352.213C581.86,-342.312 597.188,-330.049 610.476,-319.419"/>
<polygon fill="black" stroke="black" points="612.819,-322.027 618.441,-313.047 608.446,-316.561 612.819,-322.027"/>
</g>
</g>
</svg>
